<?xml version="1.0" standalone="no"?>
<!DOCTYPE svg PUBLIC "-//W3C//DTD SVG 1.1//EN" "http://www.w3.org/Graphics/SVG/1.1/DTD/svg11.dtd" >
<svg xmlns="http://www.w3.org/2000/svg" xmlns:xlink="http://www.w3.org/1999/xlink" version="1.1">
<metadata>
Created by FontForge 20170731 at Thu Nov 13 05:57:21 1997
 By Aleksey,,,
Copyright &#60;C&#62; Rubicon Computer Labs Inc., 1995. Release 1.2
</metadata>
<defs>
<font id="HelvLight-Normal" horiz-adv-x="556" >
  <font-face 
    font-family="HelvLight"
    font-weight="5"
    font-stretch="normal"
    units-per-em="1000"
    panose-1="0 0 0 0 0 0 0 0 0 0"
    ascent="800"
    descent="-200"
    x-height="518"
    cap-height="720"
    bbox="-164 -212 1000 979"
    underline-thickness="20"
    underline-position="-163"
    unicode-range="U+0020-F002"
  />
<missing-glyph horiz-adv-x="788" 
d="M49 0v788h690v-788h-690zM690 49v690h-592v-690h592z" />
    <glyph glyph-name=".notdef" horiz-adv-x="788" 
d="M49 0v788h690v-788h-690zM690 49v690h-592v-690h592z" />
    <glyph glyph-name=".null" horiz-adv-x="0" 
 />
    <glyph glyph-name="nonmarkingreturn" horiz-adv-x="278" 
 />
    <glyph glyph-name="space" unicode=" " horiz-adv-x="278" 
 />
    <glyph glyph-name="exclam" unicode="!" horiz-adv-x="333" 
d="M203 496l-14 -315h-45l-14 315v224h73v-224zM203 0h-73v88h73v-88z" />
    <glyph glyph-name="quotedbl" unicode="&#x22;" horiz-adv-x="278" 
d="M220 494h-52v226h52v-226zM109 494h-52v226h52v-226z" />
    <glyph glyph-name="numbersign" unicode="#" 
d="M530 427h-108l-20 -140h102v-59h-111l-32 -228h-59l31 228h-137l-34 -228h-59l34 228h-110v59h119l21 140h-112v59h120l32 212h60l-32 -212h136l31 212h59l-31 -212h100v-59zM363 427h-136l-22 -140h138z" />
    <glyph glyph-name="dollar" unicode="$" 
d="M518 169q0 -81 -63.5 -134.5t-152.5 -53.5v-76h-46v76q-73 0 -127.5 36t-78.5 108q-8 24 -10.5 38t-2.5 40h65q0 -67 40 -115q44 -53 113 -53v297q-99 24 -143 60q-56 46 -56 129q0 39 13 70.5t36 54.5q29 29 64.5 44t86.5 15v61h46v-61q50 0 86.5 -15t61.5 -40
q19 -19 33 -51.5t14 -69.5h-65q0 59 -43 93q-37 29 -87 29v-266q119 -26 165 -70q51 -48 51 -146zM255 394v257q-57 0 -96 -35t-39 -91q0 -58 38 -89q28 -22 97 -42zM454 179q0 69 -44 102q-33 25 -108 41v-287q66 0 109 43t43 101z" />
    <glyph glyph-name="percent" unicode="%" horiz-adv-x="889" 
d="M821 165q0 -69 -47 -117t-116 -48t-117.5 48.5t-48.5 116.5q0 67 48.5 116.5t117.5 49.5q67 0 115 -48t48 -118zM668 705l-397 -719h-52l397 719h52zM398 531q0 -67 -48.5 -115.5t-116.5 -48.5q-69 0 -117.5 48.5t-48.5 116.5q0 65 47.5 115.5t118.5 50.5
q66 0 115.5 -48.5t49.5 -118.5zM764 165q0 45 -31 77t-76 32q-43 0 -75.5 -31.5t-32.5 -78.5q0 -43 32 -75t76 -32t75.5 32.5t31.5 75.5zM341 532q0 45 -32 77t-77 32q-43 0 -75.5 -31.5t-32.5 -78.5q0 -43 32 -75t76 -32t76.5 32.5t32.5 75.5z" />
    <glyph glyph-name="ampersand" unicode="&#x26;" horiz-adv-x="667" 
d="M644 0h-81l-70 85q-46 -55 -100.5 -79.5t-126.5 -24.5q-96 0 -159 58q-66 61 -66 156q0 74 50 134q44 52 122 89q-37 43 -55 77q-22 42 -22 84q0 65 46 103t115 38q65 0 108.5 -39.5t43.5 -101.5q0 -58 -36 -100q-31 -37 -106 -79l181 -214q19 33 24.5 62.5t5.5 77.5h59
q0 -63 -13 -106.5t-37 -81.5zM385 577q0 37 -25 63t-66 26q-45 0 -71 -25t-26 -61q0 -25 21 -61q18 -32 54 -74q59 34 84 61q29 32 29 71zM454 131l-205 244q-61 -28 -100.5 -77.5t-39.5 -107.5q0 -71 46 -113t116 -42q55 0 101 26.5t82 69.5z" />
    <glyph glyph-name="quotesingle" unicode="'" horiz-adv-x="222" 
d="M137 494h-52v226h52v-226z" />
    <glyph glyph-name="parenleft" unicode="(" horiz-adv-x="333" 
d="M277 -191h-51q-95 131 -133 236t-38 231q0 124 39.5 232.5t131.5 230.5h51q-75 -109 -114 -227t-39 -241q0 -103 31 -208q38 -128 122 -254z" />
    <glyph glyph-name="parenright" unicode=")" horiz-adv-x="333" 
d="M278 272q0 -124 -39.5 -232.5t-131.5 -230.5h-51q75 109 114 227t39 241q0 103 -31 208q-38 128 -122 254h51q95 -131 133 -236t38 -231z" />
    <glyph glyph-name="asterisk" unicode="*" horiz-adv-x="389" 
d="M344 601l-114 -37l75 -106l-39 -24l-74 108l-78 -106l-35 27l77 101l-112 40l18 42l111 -43v117h42v-117l114 42z" />
    <glyph glyph-name="plus" unicode="+" horiz-adv-x="660" 
d="M580 220h-220v-220h-60v220h-220v60h220v220h60v-220h220v-60z" />
    <glyph glyph-name="comma" unicode="," horiz-adv-x="278" 
d="M175 -31q0 -37 -16 -63q-19 -31 -57 -43v37q34 19 34 65v35h-34v88h73v-119z" />
    <glyph glyph-name="hyphen" unicode="-" horiz-adv-x="333" 
d="M293 229h-253v62h253v-62z" />
    <glyph glyph-name="period" unicode="." horiz-adv-x="278" 
d="M175 0h-73v88h73v-88z" />
    <glyph glyph-name="slash" unicode="/" horiz-adv-x="278" 
d="M288 739l-235 -829h-56l235 829h56z" />
    <glyph glyph-name="zero" unicode="0" 
d="M516 339q0 -161 -45 -245q-58 -108 -192 -108q-135 0 -193 106q-47 86 -47 254q0 163 43 247q58 112 196 112t195 -115q43 -86 43 -251zM452 348q0 143 -35 215q-43 88 -141 88q-94 0 -137 -92q-36 -77 -36 -220q0 -134 30 -203q42 -96 145 -96t144 100q30 72 30 208z
" />
    <glyph glyph-name="one" unicode="1" 
d="M366 0h-64v524h-182v42q99 0 139.5 30t55.5 109h51v-705z" />
    <glyph glyph-name="two" unicode="2" 
d="M515 511q0 -51 -16.5 -88t-49.5 -70t-178 -116q-65 -37 -102 -74q-30 -30 -41.5 -56t-11.5 -53h393v-54h-461q0 66 16.5 109t59.5 86t103 83q5 3 96 58q48 29 71 52q28 28 39.5 56t11.5 62q0 69 -47 109q-43 36 -105 36q-72 0 -117 -54q-39 -47 -39 -110v-13h-68
q0 112 68 174q62 57 162 57q103 0 162 -58q54 -54 54 -136z" />
    <glyph glyph-name="three" unicode="3" 
d="M512 202q0 -101 -70 -161q-65 -55 -164 -55q-60 0 -101 11q-51 14 -82 45q-50 50 -61 162h64q0 -76 46 -120t128 -44q73 0 124.5 44.5t51.5 107.5q0 76 -51 112.5t-142 36.5l-34 -1v52q104 0 151 30q51 33 51 108q0 59 -42.5 90t-105.5 31q-64 0 -106 -36
q-47 -41 -47 -115h-64q0 49 15.5 85t46 66.5t70.5 42t94 11.5q91 0 144 -42q59 -47 59 -134q0 -56 -26 -95.5t-74 -59.5q125 -39 125 -172z" />
    <glyph glyph-name="four" unicode="4" 
d="M520 174h-98v-174h-64v174h-322v55l328 469h58v-470h98v-54zM358 228v374l-259 -374h259z" />
    <glyph glyph-name="five" unicode="5" 
d="M506 221q0 -106 -64.5 -170.5t-158.5 -64.5q-119 0 -183.5 52t-64.5 145h64q9 -69 56.5 -106t117.5 -37q75 0 122 51t47 129q0 80 -47.5 129.5t-126.5 49.5q-49 0 -86 -16t-68 -57l-53 7l57 365h350v-54h-296l-44 -237q40 26 74 36t78 10q102 0 164 -63t62 -169z" />
    <glyph glyph-name="six" unicode="6" 
d="M514 215q0 -108 -59.5 -168.5t-164.5 -60.5q-119 0 -181 78q-68 85 -68 262q0 152 48 248q65 131 208 131q82 0 135 -40q60 -46 71 -133h-66q-11 54 -42 85q-35 34 -92 34q-107 0 -156 -93q-42 -80 -42 -226q38 56 80.5 83t101.5 27q108 0 167.5 -59.5t59.5 -167.5z
M450 219q0 79 -38 122q-41 47 -122 47q-74 0 -117.5 -51t-43.5 -123q0 -73 39 -121q43 -53 122 -53q76 0 118 49.5t42 129.5z" />
    <glyph glyph-name="seven" unicode="7" 
d="M508 638q-96 -107 -166 -240q-60 -113 -92 -227q-28 -99 -28 -171h-70q0 125 76 300t203 334h-372v64h449v-60z" />
    <glyph glyph-name="eight" unicode="8" 
d="M512 201q0 -104 -70 -161q-66 -54 -176 -54q-84 0 -147 49q-75 59 -75 161q0 58 27 104q32 54 96 79q-57 34 -77.5 65.5t-20.5 87.5q0 69 52 119q56 54 145 54q96 0 154 -42q63 -46 63 -131q0 -110 -96 -157q61 -22 93 -69.5t32 -104.5zM419 538q0 54 -33 82
q-36 31 -109 31q-68 0 -106 -35t-38 -92q0 -58 41.5 -91.5t108.5 -33.5q68 0 102 37t34 102zM448 198q0 69 -45 108t-124 39q-78 0 -124.5 -38.5t-46.5 -111.5q0 -67 48 -111t127 -44q72 0 118.5 44.5t46.5 113.5z" />
    <glyph glyph-name="nine" unicode="9" 
d="M515 353q0 -180 -74 -277q-69 -90 -186 -90q-88 0 -145 46t-57 123h65q23 -115 135 -115q92 0 142 69q56 78 56 244l-2 2q-31 -51 -73 -78q-50 -32 -118 -32q-96 0 -156.5 61.5t-60.5 164.5q0 111 60.5 172.5t167.5 61.5q134 0 195 -106q51 -88 51 -246zM426 474
q0 82 -44.5 129.5t-113.5 47.5q-76 0 -119.5 -47.5t-43.5 -132.5q0 -79 42.5 -125.5t119.5 -46.5q70 0 114.5 47.5t44.5 127.5z" />
    <glyph glyph-name="colon" unicode=":" horiz-adv-x="278" 
d="M175 404h-73v88h73v-88zM175 0h-73v88h73v-88z" />
    <glyph glyph-name="semicolon" unicode=";" horiz-adv-x="278" 
d="M175 404h-73v88h73v-88zM175 -31q0 -37 -16 -63q-19 -31 -57 -43v37q34 19 34 65v35h-34v88h73v-119z" />
    <glyph glyph-name="less" unicode="&#x3c;" horiz-adv-x="660" 
d="M580 -6l-500 235v53l500 223v-64l-421 -186l421 -197v-64z" />
    <glyph glyph-name="equal" unicode="=" horiz-adv-x="660" 
d="M580 318h-500v60h500v-60zM580 124h-500v60h500v-60z" />
    <glyph glyph-name="greater" unicode="&#x3e;" horiz-adv-x="660" 
d="M580 229l-500 -235v64l421 197l-421 186v64l500 -223v-53z" />
    <glyph glyph-name="question" unicode="?" horiz-adv-x="500" 
d="M472 551q0 -39 -15 -68t-55 -69l-65 -62q-37 -37 -50 -68t-13 -79v-23h-58v31q0 54 13.5 90.5t49.5 72.5q42 42 85 84q44 51 44 97q0 56 -43 92t-109 36q-78 0 -120 -50q-37 -44 -37 -109v-10h-61v24q0 86 60.5 142.5t155.5 56.5q99 0 158.5 -49t59.5 -139zM283 0h-73v88
h73v-88z" />
    <glyph glyph-name="at" unicode="@" horiz-adv-x="800" 
d="M760 423q0 -113 -74 -202.5t-160 -89.5q-31 0 -54 14t-31 38q-23 -24 -54.5 -37t-64.5 -13q-67 0 -105 47q-34 42 -34 100q0 115 71 208q75 98 176 98q38 0 68.5 -18t44.5 -48l15 46h67l-96 -287q-5 -15 -11 -33.5t-6 -34.5q0 -28 29 -28q60 0 111 82q48 78 48 163
q0 113 -81 187t-203 74q-134 0 -225 -96t-91 -237q0 -136 91 -230.5t231 -94.5q84 0 159 43q66 37 103 93h59q-42 -80 -131 -133t-190 -53q-167 0 -277 116q-105 110 -105 266q0 153 109.5 264.5t265.5 111.5q147 0 246 -91t99 -225zM502 452q0 34 -19.5 54.5t-48.5 20.5
q-75 0 -128 -86q-47 -76 -47 -152q0 -42 21.5 -67.5t55.5 -25.5q66 0 119 97q47 85 47 159z" />
    <glyph glyph-name="A" unicode="A" horiz-adv-x="667" 
d="M651 0h-70l-83 226h-328l-85 -226h-70l283 720h77zM475 284l-141 378l-141 -378h282z" />
    <glyph glyph-name="B" unicode="B" horiz-adv-x="667" 
d="M610 206q0 -105 -59.5 -155.5t-174.5 -50.5h-295v720h258q122 0 180 -46.5t58 -134.5q0 -64 -30 -104t-85 -51q61 -10 100 -49q48 -48 48 -129zM509 539q0 67 -44.5 95t-160.5 28h-155v-260h172q105 0 150 39q38 33 38 98zM542 202q0 78 -49 110t-159 32h-185v-286h185
q119 0 163.5 31.5t44.5 112.5z" />
    <glyph glyph-name="C" unicode="C" horiz-adv-x="722" 
d="M670 237q-60 -256 -312 -256q-162 0 -243 119q-67 99 -67 258q0 202 100 299q85 82 234 82q102 0 173 -47q87 -58 107 -181h-70q-20 94 -83 135q-53 35 -142 35q-124 0 -191 -95q-60 -86 -60 -225q0 -136 53 -219q66 -103 203 -103q77 0 133 42q68 51 94 156h71z" />
    <glyph glyph-name="D" unicode="D" horiz-adv-x="722" 
d="M669 361q0 -187 -97 -284q-39 -39 -96.5 -58t-144.5 -19h-250v720h257q82 0 139 -17.5t101 -61.5q41 -41 66 -118t25 -162zM601 361q0 82 -19 141.5t-55.5 96t-84.5 50t-127 13.5h-166v-604h176q70 0 119 16.5t80 47.5q40 40 58.5 100.5t18.5 138.5z" />
    <glyph glyph-name="E" unicode="E" horiz-adv-x="611" 
d="M570 0h-489v720h479v-58h-411v-260h371v-58h-371v-286h421v-58z" />
    <glyph glyph-name="F" unicode="F" 
d="M538 662h-396v-260h360v-58h-360v-344h-68v720h464v-58z" />
    <glyph glyph-name="G" unicode="G" horiz-adv-x="778" 
d="M695 0h-58v123q-40 -70 -105.5 -106t-160.5 -36q-157 0 -241 110q-77 101 -77 272q0 172 85 272q89 104 246 104q119 0 199.5 -57.5t103.5 -170.5h-70q-18 80 -81.5 125t-145.5 45q-135 0 -204 -94q-65 -88 -65 -248q0 -127 69 -211q73 -89 192 -89q105 0 173 66
q36 36 55.5 88t19.5 121h-243v58h308v-372z" />
    <glyph glyph-name="H" unicode="H" horiz-adv-x="722" 
d="M642 0h-68v353h-426v-353h-68v720h68v-309h426v309h68v-720z" />
    <glyph glyph-name="I" unicode="I" horiz-adv-x="278" 
d="M173 0h-68v720h68v-720z" />
    <glyph glyph-name="J" unicode="J" horiz-adv-x="500" 
d="M415 198q0 -110 -52 -163.5t-146 -53.5q-105 0 -150 59t-45 188h68q0 -57 4 -81.5t16.5 -50t39.5 -39.5t73 -14q59 0 89 32q35 37 35 120v525h68v-522z" />
    <glyph glyph-name="K" unicode="K" horiz-adv-x="667" 
d="M649 0h-83l-300 391l-113 -113v-278h-68v720h68v-373l369 373h77l-284 -287z" />
    <glyph glyph-name="L" unicode="L" 
d="M535 0h-454v720h68v-662h386v-58z" />
    <glyph glyph-name="M" unicode="M" horiz-adv-x="833" 
d="M755 0h-68v642l-238 -642h-64l-237 642l-2 -642h-68v720h104l236 -635l234 635h103v-720z" />
    <glyph glyph-name="N" unicode="N" horiz-adv-x="722" 
d="M642 0h-79l-414 628l-2 -628h-68v720h77l416 -629l2 629h68v-720z" />
    <glyph glyph-name="O" unicode="O" horiz-adv-x="778" 
d="M724 359q0 -157 -78 -259q-91 -119 -258 -119q-154 0 -244.5 103.5t-90.5 277.5q0 161 83 264q91 113 250 113q161 0 252 -110q86 -103 86 -270zM656 360q0 147 -71 234t-198 87q-128 0 -200 -96q-66 -88 -66 -224q0 -139 61 -224q71 -98 208 -98q134 0 205 100
q61 86 61 221z" />
    <glyph glyph-name="P" unicode="P" horiz-adv-x="611" 
d="M576 519q0 -114 -94 -164q-70 -37 -178 -37h-158v-318h-68v720h262q129 0 187 -58q49 -49 49 -143zM508 526q0 74 -57 108q-47 28 -126 28h-179v-286h158q111 0 157.5 34.5t46.5 115.5z" />
    <glyph glyph-name="Q" unicode="Q" horiz-adv-x="778" 
d="M719 359q0 -86 -26 -161.5t-82 -129.5l96 -74l-38 -46l-106 82q-39 -24 -82.5 -36.5t-97.5 -12.5q-154 0 -244.5 103.5t-90.5 277.5q0 159 83 263q91 114 250 114q156 0 247 -101t91 -279zM651 360q0 147 -71 234t-198 87q-128 0 -200 -96q-66 -88 -66 -224
q0 -139 61 -224q71 -98 208 -98q71 0 125 32l-82 63l36 47l97 -74q46 45 68 110.5t22 142.5z" />
    <glyph glyph-name="R" unicode="R" horiz-adv-x="667" 
d="M612 0h-75q-12 22 -18.5 67t-6.5 92q0 86 -18 117q-30 51 -125 51h-221v-327h-68v720h282q119 0 179 -42q66 -47 66 -147q0 -72 -30 -113q-26 -36 -87 -63q50 -18 71 -62.5t21 -129.5q0 -63 6 -104t24 -52v-7zM539 528q0 61 -34 93q-43 41 -139 41h-218v-277h215
q81 0 128.5 37.5t47.5 105.5z" />
    <glyph glyph-name="S" unicode="S" horiz-adv-x="611" 
d="M567 191q0 -110 -84 -165q-69 -45 -176 -45q-130 0 -200 68q-64 62 -64 166h66q8 -90 62 -133t145 -43q93 0 141 46q42 40 42 99q0 44 -19.5 71.5t-56.5 46.5q-21 11 -163 47q-64 16 -101 35q-43 22 -67 54q-32 44 -32 110q0 80 62 133q67 58 182 58t181 -63
q61 -58 61 -152h-65q0 79 -55 121q-47 36 -120 36q-82 0 -130.5 -36.5t-48.5 -101.5q0 -39 17 -63.5t55 -43.5q135 -41 270 -81q98 -49 98 -164z" />
    <glyph glyph-name="T" unicode="T" 
d="M540 662h-228v-662h-68v662h-228v58h524v-58z" />
    <glyph glyph-name="U" unicode="U" horiz-adv-x="722" 
d="M640 272q0 -146 -72.5 -218.5t-205.5 -72.5q-128 0 -199 64q-81 73 -81 226v449h68v-432q0 -132 51.5 -190.5t158.5 -58.5q106 0 156 52q56 59 56 194v435h68v-448z" />
    <glyph glyph-name="V" unicode="V" horiz-adv-x="611" 
d="M593 720l-250 -720h-75l-250 720h71l217 -640l216 640h71z" />
    <glyph glyph-name="W" unicode="W" horiz-adv-x="889" 
d="M875 720l-189 -720h-75l-167 636l-169 -636h-75l-186 720h68l155 -624l169 624h76l164 -624l159 624h70z" />
    <glyph glyph-name="X" unicode="X" horiz-adv-x="611" 
d="M592 0h-78l-210 318l-209 -318h-77l248 370l-238 350h79l197 -303l198 303h79l-236 -350z" />
    <glyph glyph-name="Y" unicode="Y" horiz-adv-x="611" 
d="M598 720l-261 -406v-314h-68v309l-257 411h78l212 -347l217 347h79z" />
    <glyph glyph-name="Z" unicode="Z" horiz-adv-x="611" 
d="M579 0h-548v57l461 605h-422v58h506v-57l-461 -605h464v-58z" />
    <glyph glyph-name="bracketleft" unicode="[" horiz-adv-x="333" 
d="M282 689h-127v-830h125v-50h-189v930h191v-50z" />
    <glyph glyph-name="backslash" unicode="\" horiz-adv-x="278" 
d="M324 0h-60l-310 739h60z" />
    <glyph glyph-name="bracketright" unicode="]" horiz-adv-x="333" 
d="M242 -191h-191v50h127v830h-125v50h189v-930z" />
    <glyph glyph-name="asciicircum" unicode="^" horiz-adv-x="660" 
d="M586 245h-57l-201 392l-197 -392h-58l230 453h52z" />
    <glyph glyph-name="underscore" unicode="_" horiz-adv-x="500" 
d="M500 -119h-500v58h500v-58z" />
    <glyph glyph-name="grave" unicode="`" horiz-adv-x="333" 
d="M234 574h-51l-138 139h78z" />
    <glyph glyph-name="a" unicode="a" 
d="M534 2q-17 -6 -25.5 -8t-21.5 -2q-39 0 -55 15q-20 18 -20 65q-40 -45 -94 -67q-47 -19 -99 -19q-74 0 -122 38q-51 41 -51 111q0 69 51 109q46 36 130 47l75 10q22 3 45 6q38 6 51 19t13 46q0 50 -31.5 78t-96.5 28q-74 0 -109 -28t-43 -89h-61q0 75 52 121
q57 50 161 50q83 0 130 -33q58 -41 58 -130v-280q0 -48 27 -48q15 0 36 8v-47zM411 191v81q-44 -18 -105 -24q-112 -12 -142 -27q-54 -27 -54 -87q0 -43 32.5 -68.5t82.5 -25.5q73 0 125 35q61 41 61 116z" />
    <glyph glyph-name="b" unicode="b" horiz-adv-x="611" 
d="M555 261q0 -129 -57 -200q-60 -75 -177 -75q-53 0 -104 28t-76 77l-2 -91h-60v720h60v-285q24 41 73.5 69t110.5 28q114 0 176 -83q56 -75 56 -188zM491 255q0 102 -46.5 162.5t-129.5 60.5q-76 0 -126 -60.5t-50 -158.5q0 -92 42 -151q48 -68 137 -68q34 0 63 11.5
t51 33.5q29 29 44 69t15 101z" />
    <glyph glyph-name="c" unicode="c" 
d="M508 179q-19 -101 -83 -150q-56 -43 -138 -43q-123 0 -185 81q-55 72 -55 191q0 113 59 189q66 85 180 85q91 0 145.5 -43t68.5 -134h-61q-17 63 -57.5 93t-95.5 30q-84 0 -129.5 -63t-45.5 -157t41 -152q47 -66 135 -66q65 0 106 37t51 102h64z" />
    <glyph glyph-name="d" unicode="d" horiz-adv-x="611" 
d="M532 0h-60v91q-26 -49 -78.5 -77t-104.5 -28q-110 0 -170 68q-63 71 -63 203q0 114 53 188q62 87 180 87q58 0 108.5 -27.5t74.5 -69.5v285h60v-720zM472 260q0 97 -50 157.5t-126 60.5q-84 0 -130 -61t-46 -162q0 -56 13.5 -96.5t43.5 -71.5q22 -22 51 -34.5t66 -12.5
q89 0 136 68q42 60 42 152z" />
    <glyph glyph-name="e" unicode="e" 
d="M511 245h-402q0 -93 47 -149t128 -56q55 0 96 28q46 32 60 91h67q-24 -80 -72 -122q-57 -51 -150 -51q-126 0 -188 84q-52 71 -52 185q0 118 62 195q66 82 176 82q113 0 172 -79q56 -75 56 -208zM447 295q0 77 -38 126q-44 57 -126 57q-67 0 -112 -44q-50 -48 -62 -139
h338z" />
    <glyph glyph-name="f" unicode="f" horiz-adv-x="278" 
d="M257 468h-100v-468h-60v468h-77v50h77v82q0 70 28 102t80 32h23.5t28.5 -4v-55l-17.5 3.5t-18.5 1.5q-33 0 -48.5 -20t-15.5 -66v-76h100v-50z" />
    <glyph glyph-name="g" unicode="g" horiz-adv-x="611" 
d="M532 44q0 -141 -73 -204q-60 -52 -170 -52q-87 0 -146 37q-64 40 -73 112h64q21 -95 151 -95q64 0 102.5 20.5t60.5 64.5q14 27 19 62t5 94q-22 -39 -69 -66q-54 -31 -114 -31q-110 0 -171.5 75.5t-61.5 199.5q0 133 62 202t173 69q60 0 112 -33q48 -30 67 -72l2 91h60
v-474zM472 260q0 96 -45 155q-48 63 -132 63q-39 0 -68 -13t-53 -37q-54 -54 -54 -166q0 -105 47.5 -163.5t129.5 -58.5q78 0 126.5 61.5t48.5 158.5z" />
    <glyph glyph-name="h" unicode="h" 
d="M483 0h-60v341q0 71 -33 104t-99 33q-70 0 -114.5 -48.5t-44.5 -130.5v-299h-60v720h60v-274q53 54 89 70t78 16q122 0 167 -90q9 -17 13 -42t4 -53v-347z" />
    <glyph glyph-name="i" unicode="i" horiz-adv-x="222" 
d="M144 631h-66v89h66v-89zM141 0h-60v518h60v-518z" />
    <glyph glyph-name="j" unicode="j" horiz-adv-x="222" 
d="M151 631h-66v89h66v-89zM148 -71q0 -72 -17 -99q-22 -34 -86 -34q-17 0 -40 4v53l24 -2q33 0 46 16t13 54v597h60v-589z" />
    <glyph glyph-name="k" unicode="k" horiz-adv-x="500" 
d="M487 0h-67l-194 289l-98 -93v-196h-60v720h60v-448l254 246h82l-194 -187z" />
    <glyph glyph-name="l" unicode="l" horiz-adv-x="222" 
d="M141 0h-60v720h60v-720z" />
    <glyph glyph-name="m" unicode="m" horiz-adv-x="833" 
d="M768 0h-60v359q0 60 -25.5 89.5t-84.5 29.5q-42 0 -77 -21.5t-52 -55.5q-10 -20 -16.5 -52.5t-6.5 -64.5v-284h-60v359q0 63 -27.5 91t-80.5 28q-48 0 -85 -25q-30 -20 -45 -50q-9 -19 -16.5 -52.5t-7.5 -66.5v-284h-60v518h60v-79q23 43 66.5 68t98.5 25
q59 0 94.5 -24.5t54.5 -75.5q24 49 69.5 74.5t98.5 25.5q82 0 122 -46.5t40 -152.5v-333z" />
    <glyph glyph-name="n" unicode="n" 
d="M483 0h-60v340q0 138 -132 138q-96 0 -138 -83q-21 -42 -21 -103v-292h-60v518h60v-72q40 43 79.5 64.5t87.5 21.5q41 0 76.5 -11.5t61.5 -38t36 -57.5t10 -78v-347z" />
    <glyph glyph-name="o" unicode="o" 
d="M518 259q0 -120 -64 -196.5t-175 -76.5q-104 0 -170 69q-71 75 -71 203q0 124 63.5 199t176.5 75q115 0 179 -77q61 -74 61 -196zM454 257q0 100 -39 156q-45 65 -137 65q-84 0 -130 -60t-46 -159q0 -103 47 -161t130 -58q87 0 134 67q41 59 41 150z" />
    <glyph glyph-name="p" unicode="p" horiz-adv-x="611" 
d="M555 257q0 -114 -56 -188q-63 -83 -175 -83q-54 0 -105.5 25t-79.5 72v-287h-60v722h60v-91q21 41 73 73t108 32q110 0 170 -65q65 -70 65 -210zM491 263q0 61 -13.5 99.5t-40.5 65.5t-57.5 38.5t-63.5 11.5q-88 0 -135 -67q-42 -59 -42 -153q0 -98 50 -158t126 -60
q81 0 128.5 59.5t47.5 163.5z" />
    <glyph glyph-name="q" unicode="q" horiz-adv-x="611" 
d="M532 -204h-60v287q-26 -43 -75.5 -70t-107.5 -27q-115 0 -177 82q-56 74 -56 192q0 124 53 193q60 79 183 79q48 0 96 -25q57 -30 82 -80l2 91h60v-722zM472 260q0 94 -48 156t-127 62q-85 0 -131 -61t-46 -161q0 -61 13.5 -100t43.5 -69q22 -22 52 -34.5t66 -12.5
q86 0 134 67q43 61 43 153z" />
    <glyph glyph-name="r" unicode="r" horiz-adv-x="333" 
d="M306 467q-53 0 -88.5 -18t-56.5 -59q-26 -52 -26 -131v-259h-60v518h60v-97q26 65 74 91q37 20 97 20v-65z" />
    <glyph glyph-name="s" unicode="s" horiz-adv-x="500" 
d="M454 137q0 -72 -57 -111.5t-152 -39.5q-85 0 -140 45q-59 48 -59 131h61q14 -65 49.5 -93.5t104.5 -28.5q63 0 98 30q31 26 31 65q0 62 -86 87l-160 40q-86 35 -86 124q0 65 49.5 105.5t132.5 40.5q87 0 138 -38.5t62 -124.5h-61q-15 109 -140 109q-54 0 -85.5 -23.5
t-31.5 -64.5q0 -57 86 -84l160 -46q86 -38 86 -123z" />
    <glyph glyph-name="t" unicode="t" horiz-adv-x="278" 
d="M254 -2q-10 -3 -32.5 -7.5t-36.5 -4.5q-50 0 -71 25t-21 77v380h-73v50h73v144h60v-144h97v-50h-97v-363q0 -39 10 -52t43 -13q27 0 48 8v-50z" />
    <glyph glyph-name="u" unicode="u" 
d="M483 0h-60v72q-39 -47 -79 -66.5t-90 -19.5q-93 0 -140 53q-42 48 -42 133v346h60v-341q0 -137 133 -137q76 0 119 59q39 53 39 133v286h60v-518z" />
    <glyph glyph-name="v" unicode="v" horiz-adv-x="500" 
d="M483 518l-201 -518h-67l-198 518h65l168 -444l168 444h65z" />
    <glyph glyph-name="w" unicode="w" horiz-adv-x="722" 
d="M707 518l-168 -518h-64l-113 435l-117 -435h-72l-158 518h60l134 -442l120 442h67l114 -438l136 438h61z" />
    <glyph glyph-name="x" unicode="x" horiz-adv-x="500" 
d="M481 0h-72l-157 224l-161 -224h-73l199 268l-183 250h74l143 -206l147 206h76l-187 -250z" />
    <glyph glyph-name="y" unicode="y" horiz-adv-x="500" 
d="M482 518l-195 -516q-77 -206 -163 -206q-18 0 -33.5 3t-22.5 4v56q11 -2 23.5 -4t24.5 -2q41 0 65 46q24 64 38 97l-201 522h67l166 -445l166 445h65z" />
    <glyph glyph-name="z" unicode="z" horiz-adv-x="500" 
d="M467 0h-434v53l344 415h-321v50h398v-53l-344 -415h357v-50z" />
    <glyph glyph-name="braceleft" unicode="{" horiz-adv-x="333" 
d="M127 -50v207q0 51 -15 76q-19 31 -67 40q50 17 66 40t16 81v192q0 91 33.5 122t118.5 31q-50 -15 -71 -51q-17 -29 -17 -75v-193q0 -62 -15 -93q-19 -39 -67 -52q44 -11 63 -41t19 -92v-207q0 -49 15 -75q20 -34 73 -49q-83 -2 -117.5 28t-34.5 111z" />
    <glyph glyph-name="bar" unicode="|" horiz-adv-x="222" 
d="M141 0h-60v739h60v-739z" />
    <glyph glyph-name="braceright" unicode="}" horiz-adv-x="333" 
d="M203 158v-192q0 -91 -33.5 -122t-118.5 -31q50 15 71 51q17 29 17 75v193q0 62 15 93q19 39 67 52q-44 11 -63 41t-19 92v207q0 49 -15 75q-20 34 -73 49q83 2 117.5 -28t34.5 -111v-207q0 -51 15 -76q19 -31 67 -40q-50 -17 -66 -40t-16 -81z" />
    <glyph glyph-name="asciitilde" unicode="~" horiz-adv-x="660" 
d="M580 305q-57 -109 -138 -109q-27 0 -62 12q-8 3 -70 28l-56 26q-16 6 -33 6q-31 0 -55 -22t-53 -72l-33 47q45 65 75 84t66 19t88 -22q119 -50 132 -50q23 0 45 17q29 22 54 70z" />
    <glyph glyph-name="nonbreakingspace" unicode="&#xa0;" horiz-adv-x="500" 
 />
    <glyph glyph-name="exclamdown" unicode="&#xa1;" horiz-adv-x="333" 
d="M203 445h-73v87h73v-87zM203 -187h-73v224l14 315h45l14 -315v-224z" />
    <glyph glyph-name="cent" unicode="&#xa2;" 
d="M506 179q-13 -85 -69 -137q-61 -56 -156 -56q-23 0 -34 1.5t-32 6.5l-45 -135h-47l49 150q-59 28 -93 90.5t-34 157.5q0 128 65.5 201.5t174.5 73.5q29 0 57 -5l40 120h48l-44 -134q48 -19 76.5 -61.5t35.5 -96.5h-61q-19 68 -70 101l-135 -409q14 -3 24.5 -5t27.5 -2
q65 0 106.5 37.5t51.5 101.5h64zM324 473q-20 5 -40 5q-90 0 -137 -73q-38 -60 -38 -147q0 -61 20 -112t62 -78z" />
    <glyph glyph-name="sterling" unicode="&#xa3;" 
d="M530 56q-44 -41 -85 -57q-35 -13 -84 -13q-28 0 -84 22t-97 22q-22 0 -49 -9q-19 -6 -57 -24l-35 58q63 46 89 105q17 38 17 75q0 24 -5.5 45t-15.5 43h-99v42h82q-29 49 -40 79q-14 38 -14 79q0 85 59.5 133.5t163.5 48.5q107 0 170 -64q57 -58 57 -144v-9h-66
q0 75 -43 119t-115 44q-73 0 -117.5 -36.5t-44.5 -94.5q0 -42 31 -95l36 -60h166v-42h-151q6 -18 8.5 -34t2.5 -35q0 -50 -28 -100q-23 -41 -68 -87l3 -2q20 11 43.5 19t46.5 8q44 0 116 -28q36 -14 65 -14q24 0 46 10q29 13 62 47z" />
    <glyph glyph-name="currency" unicode="&#xa4;" 
d="M529 296q0 -77 -48 -144l43 -42l-52 -53l-44 43q-66 -50 -153 -50q-79 0 -147 50l-44 -43l-52 53l43 42q-24 36 -36 72t-12 77q0 84 48 150l-43 43l52 53l44 -43q66 49 154 49q41 0 76.5 -12.5t69.5 -36.5l44 43l52 -53l-43 -43q48 -66 48 -155zM458 302
q0 74 -51.5 126.5t-124.5 52.5q-79 0 -131 -50t-52 -131q0 -73 52 -126t127 -53q74 0 127 53t53 128z" />
    <glyph glyph-name="yen" unicode="&#xa5;" 
d="M552 720l-171 -286h111v-54h-144l-38 -66v-42h182v-54h-182v-218h-64v218h-182v54h182v42l-38 66h-144v54h111l-171 286h76l197 -347l202 347h73z" />
    <glyph glyph-name="brokenbar" unicode="&#xa6;" horiz-adv-x="222" 
d="M141 443h-60v296h60v-296zM141 0h-60v296h60v-296z" />
    <glyph glyph-name="section" unicode="&#xa7;" 
d="M508 239q0 -48 -29 -86q-25 -32 -81 -69q58 -49 58 -109q0 -71 -48.5 -113.5t-127.5 -42.5q-80 0 -130 44q-56 49 -56 138h61q0 -62 32 -95t93 -33q48 0 80 26t32 68q0 37 -28.5 69t-90.5 71l-126 79q-53 34 -76 69t-23 79q0 45 28.5 84.5t78.5 60.5q-25 27 -39 55
t-14 60q0 65 50 105t130 40q86 0 130 -48t44 -131h-54q0 58 -26 89q-30 36 -96 36q-56 0 -85 -27t-29 -68q0 -58 88 -114q82 -49 165 -98q89 -64 89 -139zM454 229q0 29 -19 54.5t-62 51.5l-183 112q-41 -17 -64.5 -42.5t-23.5 -61.5q0 -57 88 -113l175 -113
q42 22 65.5 50.5t23.5 61.5z" />
    <glyph glyph-name="dieresis" unicode="&#xa8;" horiz-adv-x="333" 
d="M284 584h-65v102h65v-102zM125 584h-65v102h65v-102z" />
    <glyph glyph-name="copyright" unicode="&#xa9;" horiz-adv-x="800" 
d="M779 360q0 -157 -110 -268t-268 -111t-269 111t-111 268t111 268t269 111q157 0 267.5 -110.5t110.5 -268.5zM719 360q0 139 -90 234t-228 95q-139 0 -229.5 -94.5t-90.5 -234.5q0 -139 91 -234t229 -95t228 95t90 234zM593 292q0 -62 -51.5 -104.5t-122.5 -42.5
q-92 0 -151.5 60.5t-59.5 159.5q0 95 55.5 155.5t152.5 60.5q72 0 119.5 -39t57.5 -104h-54q-8 44 -42 71.5t-80 27.5q-73 0 -112 -48.5t-39 -123.5q0 -78 43 -127t108 -49q47 0 81.5 28.5t40.5 74.5h54z" />
    <glyph glyph-name="ordfeminine" unicode="&#xaa;" horiz-adv-x="334" 
d="M325 421q-17 -6 -31 -6q-26 0 -37.5 10.5t-11.5 37.5q-22 -24 -53 -38t-72 -14q-48 0 -80 23.5t-32 64.5q0 28 12.5 46t37.5 31t93.5 21t81 15t12.5 30q0 31 -20 49t-63 18q-90 0 -99 -73h-40q4 51 40.5 77t98.5 26q122 0 122 -96v-174q0 -18 8 -23q3 -2 10 -2q10 0 23 5
v-28zM325 307h-317v39h317v-39zM245 533v50q-23 -9 -63 -14q-83 -9 -100 -18q-35 -18 -35 -52q0 -26 20.5 -42t54.5 -16q55 0 89 25t34 67z" />
    <glyph glyph-name="guillemotleft" unicode="&#xab;" 
d="M443 117l-146 111v63l146 113v-63l-104 -82l104 -80v-62zM259 117l-146 111v63l146 113v-63l-104 -82l104 -80v-62z" />
    <glyph glyph-name="logicalnot" unicode="&#xac;" horiz-adv-x="660" 
d="M580 112h-64v206h-436v60h500v-266z" />
    <glyph glyph-name="minus" unicode="&#xad;" horiz-adv-x="660" 
d="M580 220h-500v60h500v-60z" />
    <glyph glyph-name="registered" unicode="&#xae;" horiz-adv-x="800" 
d="M779 360q0 -157 -110 -268t-268 -111t-269 111t-111 268t111 268t269 111q157 0 267.5 -110.5t110.5 -268.5zM719 360q0 139 -90 234t-228 95q-139 0 -229.5 -94.5t-90.5 -234.5q0 -139 91 -234t229 -95t228 95t90 234zM595 459q0 -51 -30 -81q-34 -34 -103 -34l128 -195
h-62l-121 195h-95v-195h-52v423h187q76 0 112 -27t36 -86zM539 462q0 73 -104 73h-123v-150h128q55 0 77 20.5t22 56.5z" />
    <glyph glyph-name="macron" unicode="&#xaf;" horiz-adv-x="333" 
d="M319 612h-296v45h296v-45z" />
    <glyph glyph-name="degree" unicode="&#xb0;" horiz-adv-x="400" 
d="M350 555q0 -62 -44 -106t-106 -44t-106 44t-44 106t44 106t106 44t106 -45t44 -105zM310 555q0 44 -32 77t-78 33t-78 -32t-32 -78t32 -78t78 -32t78 32t32 78z" />
    <glyph glyph-name="plusminus" unicode="&#xb1;" horiz-adv-x="660" 
d="M580 270h-220v-170h-60v170h-220v60h220v170h60v-170h220v-60zM580 0h-500v60h500v-60z" />
    <glyph glyph-name="twosuperior" unicode="&#xb2;" horiz-adv-x="333" 
d="M318 623q0 -28 -8.5 -48.5t-32.5 -44.5q-20 -20 -119 -73q-47 -25 -70 -48q-16 -16 -22.5 -29t-6.5 -32h255v-32h-299q0 37 8.5 61.5t31.5 47.5q34 34 130 88q43 24 59 40t22.5 32t6.5 37q0 39 -29 62t-71 23q-41 0 -71 -29t-30 -78h-44q0 69 46 106q41 33 103 33
t101.5 -31.5t39.5 -84.5z" />
    <glyph glyph-name="threesuperior" unicode="&#xb3;" horiz-adv-x="333" 
d="M322 435q0 -56 -41.5 -91.5t-110.5 -35.5q-60 0 -97 18q-26 13 -42 39.5t-20 72.5h42q0 -48 32 -73t82 -25q47 0 80 27t33 64q0 43 -31 66t-85 23h-31v31q70 0 100.5 20t30.5 61q0 34 -25.5 54.5t-71.5 20.5q-43 0 -71 -23.5t-28 -67.5h-41q0 34 16 63t48 45
q17 8 36 11.5t47 3.5q59 0 95.5 -27.5t36.5 -74.5q0 -34 -14.5 -58t-50.5 -39q40 -12 60.5 -37t20.5 -68z" />
    <glyph glyph-name="acute" unicode="&#xb4;" horiz-adv-x="333" 
d="M297 713l-137 -139h-51l111 139h77z" />
    <glyph glyph-name="mu" unicode="&#xb5;" 
d="M483 0h-60v72q-39 -47 -79.5 -66.5t-87.5 -19.5q-38 0 -67.5 8t-56.5 24v-222h-60v722h60v-340q0 -76 38 -109q33 -29 95 -29q75 0 118 58q40 54 40 136v284h60v-518z" />
    <glyph glyph-name="paragraph" unicode="&#xb6;" horiz-adv-x="650" 
d="M506 -146h-60v799h-128v-799h-60v482h-5q-70 0 -126 53q-61 58 -61 140q0 88 57.5 139.5t163.5 51.5h219v-866z" />
    <glyph glyph-name="periodcentered" unicode="&#xb7;" horiz-adv-x="278" 
d="M187 350q0 -20 -13.5 -34.5t-33.5 -14.5t-35 14t-15 34t14.5 34.5t35.5 14.5q20 0 33.5 -14.5t13.5 -33.5z" />
    <glyph glyph-name="periodcentered" unicode="&#x2219;" horiz-adv-x="278" 
d="M187 350q0 -20 -13.5 -34.5t-33.5 -14.5t-35 14t-15 34t14.5 34.5t35.5 14.5q20 0 33.5 -14.5t13.5 -33.5z" />
    <glyph glyph-name="cedilla" unicode="&#xb8;" horiz-adv-x="333" 
d="M257 -122q0 -45 -37 -67q-30 -18 -79 -18q-22 0 -43.5 5t-43.5 14l15 30q44 -15 64 -15q27 0 46.5 12t19.5 34q0 19 -14.5 29.5t-35.5 10.5q-18 0 -44 -8l-15 13l60 82h39l-47 -59q21 6 37 6q30 0 54 -17.5t24 -51.5z" />
    <glyph glyph-name="onesuperior" unicode="&#xb9;" horiz-adv-x="333" 
d="M247 316h-42v314h-118v26q60 0 89 17t38 66h33v-423z" />
    <glyph glyph-name="ordmasculine" unicode="&#xba;" horiz-adv-x="334" 
d="M323 574q0 -71 -42 -117t-111 -46q-72 0 -115.5 43.5t-43.5 120.5q0 73 41.5 118.5t115.5 45.5q75 0 115 -45.5t40 -119.5zM323 307h-312v39h312v-39zM284 575q0 65 -30.5 99.5t-85.5 34.5q-54 0 -86 -36t-32 -99q0 -60 31.5 -96.5t86.5 -36.5q52 0 84 37t32 97z" />
    <glyph glyph-name="guillemotright" unicode="&#xbb;" 
d="M443 230l-146 -113v63l104 82l-104 80v62l146 -111v-63zM259 230l-146 -113v63l104 82l-104 80v62l146 -111v-63z" />
    <glyph glyph-name="onequarter" unicode="&#xbc;" horiz-adv-x="834" 
d="M794 104h-63v-104h-42v104h-209v33l213 282h38v-282h63v-33zM663 705l-444 -719h-51l444 719h51zM200 316h-42v314h-118v26q60 0 89 17t38 66h33v-423zM689 137v224l-168 -224h168z" />
    <glyph glyph-name="onehalf" unicode="&#xbd;" horiz-adv-x="834" 
d="M794 307q0 -28 -8.5 -48.5t-32.5 -44.5q-20 -20 -119 -73q-47 -25 -70 -48q-16 -16 -22.5 -29t-6.5 -32h255v-32h-299q0 37 8.5 61.5t31.5 47.5q34 34 130 88q43 24 59 40t22.5 32t6.5 37q0 39 -29 62t-71 23q-41 0 -71 -29t-30 -78h-44q0 69 46 106q41 33 103 33
t101.5 -31.5t39.5 -84.5zM623 705l-444 -719h-51l444 719h51zM200 316h-42v314h-118v26q60 0 89 17t38 66h33v-423z" />
    <glyph glyph-name="threequarters" unicode="&#xbe;" horiz-adv-x="834" 
d="M794 104h-63v-104h-42v104h-209v33l213 282h38v-282h63v-33zM703 705l-444 -719h-51l444 719h51zM351 435q0 -56 -41.5 -91.5t-110.5 -35.5q-60 0 -97 18q-26 13 -42 39.5t-20 72.5h42q0 -48 32 -73t82 -25q47 0 80 27t33 64q0 43 -31 66t-85 23h-31v31q70 0 100.5 20
t30.5 61q0 34 -25.5 54.5t-71.5 20.5q-43 0 -71 -23.5t-28 -67.5h-41q0 34 16 63t48 45q17 8 36 11.5t47 3.5q59 0 95.5 -27.5t36.5 -74.5q0 -34 -14.5 -58t-50.5 -39q40 -12 60.5 -37t20.5 -68zM689 137v224l-168 -224h168z" />
    <glyph glyph-name="questiondown" unicode="&#xbf;" horiz-adv-x="500" 
d="M290 444h-73v88h73v-88zM462 -8q0 -86 -60.5 -142.5t-155.5 -56.5q-99 0 -158.5 49t-59.5 139q0 39 15 68t55 69l65 62q37 37 50 68t13 79v23h58v-31q0 -54 -13.5 -90.5t-49.5 -72.5q-43 -42 -85 -84q-44 -51 -44 -97q0 -56 43 -92t109 -36q78 0 120 50q37 44 37 109v10
h61v-24z" />
    <glyph glyph-name="Agrave" unicode="&#xc0;" horiz-adv-x="667" 
d="M651 0h-70l-83 226h-328l-85 -226h-70l283 720h77zM475 284l-141 378l-141 -378h282zM401 776h-51l-138 139h78z" />
    <glyph glyph-name="Aacute" unicode="&#xc1;" horiz-adv-x="667" 
d="M651 0h-70l-83 226h-328l-85 -226h-70l283 720h77zM475 284l-141 378l-141 -378h282zM464 915l-137 -139h-51l111 139h77z" />
    <glyph glyph-name="Acircumflex" unicode="&#xc2;" horiz-adv-x="667" 
d="M651 0h-70l-83 226h-328l-85 -226h-70l283 720h77zM475 284l-141 378l-141 -378h282zM485 776h-65l-82 102l-82 -102h-65l114 139h67z" />
    <glyph glyph-name="Atilde" unicode="&#xc3;" horiz-adv-x="667" 
d="M651 0h-70l-83 226h-328l-85 -226h-70l283 720h77zM475 284l-141 378l-141 -378h282zM496 890q-4 -42 -26 -70t-56 -28q-29 0 -77 22.5t-68 22.5q-18 0 -30 -11t-20 -38h-36q0 40 26.5 68.5t64.5 28.5q23 0 72 -22.5t68 -22.5q16 0 27 11t17 39h38z" />
    <glyph glyph-name="Adieresis" unicode="&#xc4;" horiz-adv-x="667" 
d="M651 0h-70l-83 226h-328l-85 -226h-70l283 720h77zM475 284l-141 378l-141 -378h282zM451 786h-65v102h65v-102zM292 786h-65v102h65v-102z" />
    <glyph glyph-name="Aring" unicode="&#xc5;" horiz-adv-x="667" 
d="M651 0h-70l-83 226h-328l-85 -226h-70l283 720h77zM475 284l-141 378l-141 -378h282zM453 879q0 -41 -29 -70t-70 -29q-40 0 -70 29t-30 69q0 41 29 71t71 30q41 0 70 -29t29 -71zM420 879q0 27 -19 47t-47 20q-27 0 -47 -20t-20 -47q0 -26 20 -46t47 -20q26 0 46 20
t20 46z" />
    <glyph glyph-name="AE" unicode="&#xc6;" horiz-adv-x="1000" 
d="M960 0h-488v226h-303l-96 -226h-68l313 720h630v-58h-408v-260h371v-58h-371v-286h420v-58zM472 284v378h-114l-161 -378h275z" />
    <glyph glyph-name="Ccedilla" unicode="&#xc7;" horiz-adv-x="722" 
d="M670 237q-60 -256 -312 -256q-162 0 -243 119q-67 99 -67 258q0 202 100 299q85 82 234 82q102 0 173 -47q87 -58 107 -181h-70q-20 94 -83 135q-53 35 -142 35q-124 0 -191 -95q-60 -86 -60 -225q0 -136 53 -219q66 -103 203 -103q77 0 133 42q68 51 94 156h71z
M452 -122q0 -45 -37 -67q-30 -18 -79 -18q-22 0 -43.5 5t-43.5 14l15 30q44 -15 64 -15q27 0 46.5 12t19.5 34q0 19 -14.5 29.5t-35.5 10.5q-18 0 -44 -8l-15 13l60 82h39l-47 -59q21 6 37 6q30 0 54 -17.5t24 -51.5z" />
    <glyph glyph-name="Egrave" unicode="&#xc8;" horiz-adv-x="611" 
d="M570 0h-489v720h479v-58h-411v-260h371v-58h-371v-286h421v-58zM373 776h-51l-138 139h78z" />
    <glyph glyph-name="Eacute" unicode="&#xc9;" horiz-adv-x="611" 
d="M570 0h-489v720h479v-58h-411v-260h371v-58h-371v-286h421v-58zM436 915l-137 -139h-51l111 139h77z" />
    <glyph glyph-name="Ecircumflex" unicode="&#xca;" horiz-adv-x="611" 
d="M570 0h-489v720h479v-58h-411v-260h371v-58h-371v-286h421v-58zM457 776h-65l-82 102l-82 -102h-65l114 139h67z" />
    <glyph glyph-name="Edieresis" unicode="&#xcb;" horiz-adv-x="611" 
d="M570 0h-489v720h479v-58h-411v-260h371v-58h-371v-286h421v-58zM423 786h-65v102h65v-102zM264 786h-65v102h65v-102z" />
    <glyph glyph-name="Igrave" unicode="&#xcc;" horiz-adv-x="278" 
d="M173 0h-68v720h68v-720zM207 776h-51l-138 139h78z" />
    <glyph glyph-name="Iacute" unicode="&#xcd;" horiz-adv-x="278" 
d="M173 0h-68v720h68v-720zM250 915l-137 -139h-51l111 139h77z" />
    <glyph glyph-name="Icircumflex" unicode="&#xce;" horiz-adv-x="278" 
d="M173 0h-68v720h68v-720zM271 776h-65l-82 102l-82 -102h-65l114 139h67z" />
    <glyph glyph-name="Idieresis" unicode="&#xcf;" horiz-adv-x="278" 
d="M173 0h-68v720h68v-720zM237 786h-65v102h65v-102zM78 786h-65v102h65v-102z" />
    <glyph glyph-name="Eth" unicode="&#xd0;" horiz-adv-x="722" 
d="M669 361q0 -187 -97 -284q-39 -39 -96.5 -58t-144.5 -19h-250v353h-71v58h71v309h257q82 0 139 -17.5t101 -61.5q41 -41 66 -118t25 -162zM601 361q0 82 -19 141.5t-55.5 96t-84.5 50t-127 13.5h-166v-251h121v-58h-121v-295h176q70 0 119 16.5t80 47.5q40 40 58.5 100.5
t18.5 138.5z" />
    <glyph glyph-name="Ntilde" unicode="&#xd1;" horiz-adv-x="722" 
d="M642 0h-79l-414 628l-2 -628h-68v720h77l416 -629l2 629h68v-720zM524 890q-4 -42 -26 -70t-56 -28q-29 0 -77 22.5t-68 22.5q-18 0 -30 -11t-20 -38h-36q0 40 26.5 68.5t64.5 28.5q23 0 72 -22.5t68 -22.5q16 0 27 11t17 39h38z" />
    <glyph glyph-name="Ograve" unicode="&#xd2;" horiz-adv-x="778" 
d="M724 359q0 -157 -78 -259q-91 -119 -258 -119q-154 0 -244.5 103.5t-90.5 277.5q0 161 83 264q91 113 250 113q161 0 252 -110q86 -103 86 -270zM656 360q0 147 -71 234t-198 87q-128 0 -200 -96q-66 -88 -66 -224q0 -139 61 -224q71 -98 208 -98q134 0 205 100
q61 86 61 221zM457 776h-51l-138 139h78z" />
    <glyph glyph-name="Oacute" unicode="&#xd3;" horiz-adv-x="778" 
d="M724 359q0 -157 -78 -259q-91 -119 -258 -119q-154 0 -244.5 103.5t-90.5 277.5q0 161 83 264q91 113 250 113q161 0 252 -110q86 -103 86 -270zM656 360q0 147 -71 234t-198 87q-128 0 -200 -96q-66 -88 -66 -224q0 -139 61 -224q71 -98 208 -98q134 0 205 100
q61 86 61 221zM520 915l-137 -139h-51l111 139h77z" />
    <glyph glyph-name="Ocircumflex" unicode="&#xd4;" horiz-adv-x="778" 
d="M724 359q0 -157 -78 -259q-91 -119 -258 -119q-154 0 -244.5 103.5t-90.5 277.5q0 161 83 264q91 113 250 113q161 0 252 -110q86 -103 86 -270zM656 360q0 147 -71 234t-198 87q-128 0 -200 -96q-66 -88 -66 -224q0 -139 61 -224q71 -98 208 -98q134 0 205 100
q61 86 61 221zM541 776h-65l-82 102l-82 -102h-65l114 139h67z" />
    <glyph glyph-name="Otilde" unicode="&#xd5;" horiz-adv-x="778" 
d="M724 359q0 -157 -78 -259q-91 -119 -258 -119q-154 0 -244.5 103.5t-90.5 277.5q0 161 83 264q91 113 250 113q161 0 252 -110q86 -103 86 -270zM656 360q0 147 -71 234t-198 87q-128 0 -200 -96q-66 -88 -66 -224q0 -139 61 -224q71 -98 208 -98q134 0 205 100
q61 86 61 221zM552 890q-4 -42 -26 -70t-56 -28q-29 0 -77 22.5t-68 22.5q-18 0 -30 -11t-20 -38h-36q0 40 26.5 68.5t64.5 28.5q23 0 72 -22.5t68 -22.5q16 0 27 11t17 39h38z" />
    <glyph glyph-name="Odieresis" unicode="&#xd6;" horiz-adv-x="778" 
d="M724 359q0 -157 -78 -259q-91 -119 -258 -119q-154 0 -244.5 103.5t-90.5 277.5q0 161 83 264q91 113 250 113q161 0 252 -110q86 -103 86 -270zM656 360q0 147 -71 234t-198 87q-128 0 -200 -96q-66 -88 -66 -224q0 -139 61 -224q71 -98 208 -98q134 0 205 100
q61 86 61 221zM507 786h-65v102h65v-102zM348 786h-65v102h65v-102z" />
    <glyph glyph-name="multiply" unicode="&#xd7;" horiz-adv-x="660" 
d="M578 42l-37 -36l-210 210l-211 -210l-37 36l211 211l-211 211l37 36l211 -210l210 210l37 -36l-210 -211z" />
    <glyph glyph-name="Oslash" unicode="&#xd8;" horiz-adv-x="778" 
d="M736 712l-87 -100q35 -40 53.5 -107.5t18.5 -145.5q0 -157 -78 -259q-91 -119 -258 -119q-67 0 -121.5 20t-97.5 59l-85 -97l-39 34l89 101q-81 104 -81 264t84 264q92 113 249 113q71 0 129.5 -22.5t101.5 -64.5l83 95zM572 604q-69 77 -188 77q-128 0 -200 -96
q-66 -88 -66 -224q0 -62 13.5 -116t42.5 -98zM653 360q0 61 -12.5 110.5t-36.5 89.5l-397 -453q32 -32 77.5 -50t102.5 -18q134 0 205 100q61 86 61 221z" />
    <glyph glyph-name="Ugrave" unicode="&#xd9;" horiz-adv-x="722" 
d="M640 272q0 -146 -72.5 -218.5t-205.5 -72.5q-128 0 -199 64q-81 73 -81 226v449h68v-432q0 -132 51.5 -190.5t158.5 -58.5q106 0 156 52q56 59 56 194v435h68v-448zM429 776h-51l-138 139h78z" />
    <glyph glyph-name="Uacute" unicode="&#xda;" horiz-adv-x="722" 
d="M640 272q0 -146 -72.5 -218.5t-205.5 -72.5q-128 0 -199 64q-81 73 -81 226v449h68v-432q0 -132 51.5 -190.5t158.5 -58.5q106 0 156 52q56 59 56 194v435h68v-448zM492 915l-137 -139h-51l111 139h77z" />
    <glyph glyph-name="Ucircumflex" unicode="&#xdb;" horiz-adv-x="722" 
d="M640 272q0 -146 -72.5 -218.5t-205.5 -72.5q-128 0 -199 64q-81 73 -81 226v449h68v-432q0 -132 51.5 -190.5t158.5 -58.5q106 0 156 52q56 59 56 194v435h68v-448zM513 776h-65l-82 102l-82 -102h-65l114 139h67z" />
    <glyph glyph-name="Udieresis" unicode="&#xdc;" horiz-adv-x="722" 
d="M640 272q0 -146 -72.5 -218.5t-205.5 -72.5q-128 0 -199 64q-81 73 -81 226v449h68v-432q0 -132 51.5 -190.5t158.5 -58.5q106 0 156 52q56 59 56 194v435h68v-448zM479 786h-65v102h65v-102zM320 786h-65v102h65v-102z" />
    <glyph glyph-name="Yacute" unicode="&#xdd;" horiz-adv-x="611" 
d="M598 720l-261 -406v-314h-68v309l-257 411h78l212 -347l217 347h79zM436 915l-137 -139h-51l111 139h77z" />
    <glyph glyph-name="Thorn" unicode="&#xde;" horiz-adv-x="611" 
d="M576 370q0 -106 -79 -157q-70 -45 -200 -45h-151v-168h-68v720h68v-150h194q130 0 188 -59q48 -49 48 -141zM508 375q0 137 -187 137h-175v-286h160q104 0 150 30q52 34 52 119z" />
    <glyph glyph-name="germandbls" unicode="&#xdf;" horiz-adv-x="500" 
d="M459 225q0 -119 -59 -181q-55 -58 -154 -58q-18 0 -35 5v53l37 -3q67 0 107 43t40 117q0 91 -43.5 132.5t-140.5 41.5v50q157 0 157 124q0 58 -28 92q-32 39 -97 39q-74 0 -102.5 -31.5t-28.5 -110.5v-538h-60v546q0 97 49 142.5t138 45.5q87 0 140 -50t53 -135
q0 -44 -19.5 -79t-64.5 -67q50 -17 80.5 -66.5t30.5 -111.5z" />
    <glyph glyph-name="agrave" unicode="&#xe0;" 
d="M534 2q-17 -6 -25.5 -8t-21.5 -2q-39 0 -55 15q-20 18 -20 65q-40 -45 -94 -67q-47 -19 -99 -19q-74 0 -122 38q-51 41 -51 111q0 69 51 109q46 36 130 47l75 10q22 3 45 6q38 6 51 19t13 46q0 50 -31.5 78t-96.5 28q-74 0 -109 -28t-43 -89h-61q0 75 52 121
q57 50 161 50q83 0 130 -33q58 -41 58 -130v-280q0 -48 27 -48q15 0 36 8v-47zM411 191v81q-44 -18 -105 -24q-112 -12 -142 -27q-54 -27 -54 -87q0 -43 32.5 -68.5t82.5 -25.5q73 0 125 35q61 41 61 116zM346 574h-51l-138 139h78z" />
    <glyph glyph-name="aacute" unicode="&#xe1;" 
d="M534 2q-17 -6 -25.5 -8t-21.5 -2q-39 0 -55 15q-20 18 -20 65q-40 -45 -94 -67q-47 -19 -99 -19q-74 0 -122 38q-51 41 -51 111q0 69 51 109q46 36 130 47l75 10q22 3 45 6q38 6 51 19t13 46q0 50 -31.5 78t-96.5 28q-74 0 -109 -28t-43 -89h-61q0 75 52 121
q57 50 161 50q83 0 130 -33q58 -41 58 -130v-280q0 -48 27 -48q15 0 36 8v-47zM411 191v81q-44 -18 -105 -24q-112 -12 -142 -27q-54 -27 -54 -87q0 -43 32.5 -68.5t82.5 -25.5q73 0 125 35q61 41 61 116zM409 713l-137 -139h-51l111 139h77z" />
    <glyph glyph-name="acircumflex" unicode="&#xe2;" 
d="M534 2q-17 -6 -25.5 -8t-21.5 -2q-39 0 -55 15q-20 18 -20 65q-40 -45 -94 -67q-47 -19 -99 -19q-74 0 -122 38q-51 41 -51 111q0 69 51 109q46 36 130 47l75 10q22 3 45 6q38 6 51 19t13 46q0 50 -31.5 78t-96.5 28q-74 0 -109 -28t-43 -89h-61q0 75 52 121
q57 50 161 50q83 0 130 -33q58 -41 58 -130v-280q0 -48 27 -48q15 0 36 8v-47zM411 191v81q-44 -18 -105 -24q-112 -12 -142 -27q-54 -27 -54 -87q0 -43 32.5 -68.5t82.5 -25.5q73 0 125 35q61 41 61 116zM430 574h-65l-82 102l-82 -102h-65l114 139h67z" />
    <glyph glyph-name="atilde" unicode="&#xe3;" 
d="M534 2q-17 -6 -25.5 -8t-21.5 -2q-39 0 -55 15q-20 18 -20 65q-40 -45 -94 -67q-47 -19 -99 -19q-74 0 -122 38q-51 41 -51 111q0 69 51 109q46 36 130 47l75 10q22 3 45 6q38 6 51 19t13 46q0 50 -31.5 78t-96.5 28q-74 0 -109 -28t-43 -89h-61q0 75 52 121
q57 50 161 50q83 0 130 -33q58 -41 58 -130v-280q0 -48 27 -48q15 0 36 8v-47zM411 191v81q-44 -18 -105 -24q-112 -12 -142 -27q-54 -27 -54 -87q0 -43 32.5 -68.5t82.5 -25.5q73 0 125 35q61 41 61 116zM441 688q-4 -42 -26 -70t-56 -28q-29 0 -77 22.5t-68 22.5
q-18 0 -30 -11t-20 -38h-36q0 40 26.5 68.5t64.5 28.5q23 0 72 -22.5t68 -22.5q16 0 27 11t17 39h38z" />
    <glyph glyph-name="adieresis" unicode="&#xe4;" 
d="M534 2q-17 -6 -25.5 -8t-21.5 -2q-39 0 -55 15q-20 18 -20 65q-40 -45 -94 -67q-47 -19 -99 -19q-74 0 -122 38q-51 41 -51 111q0 69 51 109q46 36 130 47l75 10q22 3 45 6q38 6 51 19t13 46q0 50 -31.5 78t-96.5 28q-74 0 -109 -28t-43 -89h-61q0 75 52 121
q57 50 161 50q83 0 130 -33q58 -41 58 -130v-280q0 -48 27 -48q15 0 36 8v-47zM411 191v81q-44 -18 -105 -24q-112 -12 -142 -27q-54 -27 -54 -87q0 -43 32.5 -68.5t82.5 -25.5q73 0 125 35q61 41 61 116zM396 584h-65v102h65v-102zM237 584h-65v102h65v-102z" />
    <glyph glyph-name="aring" unicode="&#xe5;" 
d="M534 2q-17 -6 -25.5 -8t-21.5 -2q-39 0 -55 15q-20 18 -20 65q-40 -45 -94 -67q-47 -19 -99 -19q-74 0 -122 38q-51 41 -51 111q0 69 51 109q46 36 130 47l75 10q22 3 45 6q38 6 51 19t13 46q0 50 -31.5 78t-96.5 28q-74 0 -109 -28t-43 -89h-61q0 75 52 121
q57 50 161 50q83 0 130 -33q58 -41 58 -130v-280q0 -48 27 -48q15 0 36 8v-47zM411 191v81q-44 -18 -105 -24q-112 -12 -142 -27q-54 -27 -54 -87q0 -43 32.5 -68.5t82.5 -25.5q73 0 125 35q61 41 61 116zM378 677q0 -41 -29 -70t-70 -29q-40 0 -70 29t-30 69q0 41 29 71
t71 30q41 0 70 -29t29 -71zM345 677q0 27 -19 47t-47 20q-27 0 -47 -20t-20 -47q0 -26 20 -46t47 -20q26 0 46 20t20 46z" />
    <glyph glyph-name="ae" unicode="&#xe6;" horiz-adv-x="889" 
d="M847 245h-390q0 -95 43.5 -150t128.5 -55q60 0 98 32t53 88h63q-18 -79 -70 -124q-58 -50 -146 -50q-71 0 -119 27t-84 87q-41 -60 -93.5 -87t-122.5 -27q-82 0 -125.5 39.5t-43.5 106.5q0 95 83 137q43 21 133 30t114 21t24 46q0 63 -26.5 87.5t-98.5 24.5
q-70 0 -103.5 -28.5t-41.5 -85.5h-62q0 83 61 128q55 40 144 40q68 0 114.5 -20t65.5 -65q30 46 72.5 65.5t106.5 19.5q115 0 170 -75q52 -71 52 -212zM783 295q0 84 -43 133.5t-115 49.5q-80 0 -126 -57q-42 -52 -42 -126h326zM393 204v70q-33 -17 -121.5 -28t-121.5 -27
q-22 -11 -34.5 -30t-12.5 -49q0 -46 27 -73t82 -27q87 0 134 43t47 121z" />
    <glyph glyph-name="ccedilla" unicode="&#xe7;" 
d="M508 179q-19 -101 -83 -150q-56 -43 -138 -43q-123 0 -185 81q-55 72 -55 191q0 113 59 189q66 85 180 85q91 0 145.5 -43t68.5 -134h-61q-17 63 -57.5 93t-95.5 30q-84 0 -129.5 -63t-45.5 -157t41 -152q47 -66 135 -66q65 0 106 37t51 102h64zM369 -122q0 -45 -37 -67
q-30 -18 -79 -18q-22 0 -43.5 5t-43.5 14l15 30q44 -15 64 -15q27 0 46.5 12t19.5 34q0 19 -14.5 29.5t-35.5 10.5q-18 0 -44 -8l-15 13l60 82h39l-47 -59q21 6 37 6q30 0 54 -17.5t24 -51.5z" />
    <glyph glyph-name="egrave" unicode="&#xe8;" 
d="M511 245h-402q0 -93 47 -149t128 -56q55 0 96 28q46 32 60 91h67q-24 -80 -72 -122q-57 -51 -150 -51q-126 0 -188 84q-52 71 -52 185q0 118 62 195q66 82 176 82q113 0 172 -79q56 -75 56 -208zM447 295q0 77 -38 126q-44 57 -126 57q-67 0 -112 -44q-50 -48 -62 -139
h338zM346 574h-51l-138 139h78z" />
    <glyph glyph-name="eacute" unicode="&#xe9;" 
d="M511 245h-402q0 -93 47 -149t128 -56q55 0 96 28q46 32 60 91h67q-24 -80 -72 -122q-57 -51 -150 -51q-126 0 -188 84q-52 71 -52 185q0 118 62 195q66 82 176 82q113 0 172 -79q56 -75 56 -208zM447 295q0 77 -38 126q-44 57 -126 57q-67 0 -112 -44q-50 -48 -62 -139
h338zM409 713l-137 -139h-51l111 139h77z" />
    <glyph glyph-name="ecircumflex" unicode="&#xea;" 
d="M511 245h-402q0 -93 47 -149t128 -56q55 0 96 28q46 32 60 91h67q-24 -80 -72 -122q-57 -51 -150 -51q-126 0 -188 84q-52 71 -52 185q0 118 62 195q66 82 176 82q113 0 172 -79q56 -75 56 -208zM447 295q0 77 -38 126q-44 57 -126 57q-67 0 -112 -44q-50 -48 -62 -139
h338zM430 574h-65l-82 102l-82 -102h-65l114 139h67z" />
    <glyph glyph-name="edieresis" unicode="&#xeb;" 
d="M511 245h-402q0 -93 47 -149t128 -56q55 0 96 28q46 32 60 91h67q-24 -80 -72 -122q-57 -51 -150 -51q-126 0 -188 84q-52 71 -52 185q0 118 62 195q66 82 176 82q113 0 172 -79q56 -75 56 -208zM447 295q0 77 -38 126q-44 57 -126 57q-67 0 -112 -44q-50 -48 -62 -139
h338zM396 584h-65v102h65v-102zM237 584h-65v102h65v-102z" />
    <glyph glyph-name="igrave" unicode="&#xec;" horiz-adv-x="222" 
d="M138 0h-60v518h60v-518zM179 574h-51l-138 139h78z" />
    <glyph glyph-name="iacute" unicode="&#xed;" horiz-adv-x="222" 
d="M138 0h-60v518h60v-518zM222 713l-137 -139h-51l111 139h77z" />
    <glyph glyph-name="icircumflex" unicode="&#xee;" horiz-adv-x="222" 
d="M138 0h-60v518h60v-518zM243 574h-65l-82 102l-82 -102h-65l114 139h67z" />
    <glyph glyph-name="idieresis" unicode="&#xef;" horiz-adv-x="222" 
d="M138 0h-60v518h60v-518zM209 584h-65v102h65v-102zM50 584h-65v102h65v-102z" />
    <glyph glyph-name="eth" unicode="&#xf0;" 
d="M518 260q0 -127 -66.5 -200.5t-173.5 -73.5q-99 0 -165 65q-75 74 -75 209q0 115 57 187q67 85 199 85q-19 26 -41 47q-7 7 -50 45l-109 -54l-34 27l109 55q-36 30 -82 62l49 25q49 -30 88 -60l120 60l35 -28l-121 -60q68 -54 134 -122q72 -74 93 -116q33 -66 33 -153z
M454 257q0 104 -44 162.5t-131 58.5q-86 0 -131.5 -60t-45.5 -159q0 -104 47.5 -161.5t129.5 -57.5q85 0 132 64q43 59 43 153z" />
    <glyph glyph-name="ntilde" unicode="&#xf1;" 
d="M483 0h-60v340q0 138 -132 138q-96 0 -138 -83q-21 -42 -21 -103v-292h-60v518h60v-72q40 43 79.5 64.5t87.5 21.5q41 0 76.5 -11.5t61.5 -38t36 -57.5t10 -78v-347zM441 688q-4 -42 -26 -70t-56 -28q-29 0 -77 22.5t-68 22.5q-18 0 -30 -11t-20 -38h-36q0 40 26.5 68.5
t64.5 28.5q23 0 72 -22.5t68 -22.5q16 0 27 11t17 39h38z" />
    <glyph glyph-name="ograve" unicode="&#xf2;" 
d="M518 259q0 -120 -64 -196.5t-175 -76.5q-104 0 -170 69q-71 75 -71 203q0 124 63.5 199t176.5 75q115 0 179 -77q61 -74 61 -196zM454 257q0 100 -39 156q-45 65 -137 65q-84 0 -130 -60t-46 -159q0 -103 47 -161t130 -58q87 0 134 67q41 59 41 150zM346 574h-51
l-138 139h78z" />
    <glyph glyph-name="oacute" unicode="&#xf3;" 
d="M518 259q0 -120 -64 -196.5t-175 -76.5q-104 0 -170 69q-71 75 -71 203q0 124 63.5 199t176.5 75q115 0 179 -77q61 -74 61 -196zM454 257q0 100 -39 156q-45 65 -137 65q-84 0 -130 -60t-46 -159q0 -103 47 -161t130 -58q87 0 134 67q41 59 41 150zM409 713l-137 -139
h-51l111 139h77z" />
    <glyph glyph-name="ocircumflex" unicode="&#xf4;" 
d="M518 259q0 -120 -64 -196.5t-175 -76.5q-104 0 -170 69q-71 75 -71 203q0 124 63.5 199t176.5 75q115 0 179 -77q61 -74 61 -196zM454 257q0 100 -39 156q-45 65 -137 65q-84 0 -130 -60t-46 -159q0 -103 47 -161t130 -58q87 0 134 67q41 59 41 150zM430 574h-65l-82 102
l-82 -102h-65l114 139h67z" />
    <glyph glyph-name="otilde" unicode="&#xf5;" 
d="M518 259q0 -120 -64 -196.5t-175 -76.5q-104 0 -170 69q-71 75 -71 203q0 124 63.5 199t176.5 75q115 0 179 -77q61 -74 61 -196zM454 257q0 100 -39 156q-45 65 -137 65q-84 0 -130 -60t-46 -159q0 -103 47 -161t130 -58q87 0 134 67q41 59 41 150zM441 688
q-4 -42 -26 -70t-56 -28q-29 0 -77 22.5t-68 22.5q-18 0 -30 -11t-20 -38h-36q0 40 26.5 68.5t64.5 28.5q23 0 72 -22.5t68 -22.5q16 0 27 11t17 39h38z" />
    <glyph glyph-name="odieresis" unicode="&#xf6;" 
d="M518 259q0 -120 -64 -196.5t-175 -76.5q-104 0 -170 69q-71 75 -71 203q0 124 63.5 199t176.5 75q115 0 179 -77q61 -74 61 -196zM454 257q0 100 -39 156q-45 65 -137 65q-84 0 -130 -60t-46 -159q0 -103 47 -161t130 -58q87 0 134 67q41 59 41 150zM396 584h-65v102h65
v-102zM237 584h-65v102h65v-102z" />
    <glyph glyph-name="divide" unicode="&#xf7;" horiz-adv-x="660" 
d="M367 412h-73v88h73v-88zM580 220h-500v60h500v-60zM367 0h-73v88h73v-88z" />
    <glyph glyph-name="oslash" unicode="&#xf8;" 
d="M521 510l-55 -65q26 -35 40 -83t14 -100q0 -129 -63.5 -202.5t-175.5 -73.5q-97 0 -156 55l-54 -64l-36 29l58 68q-53 69 -53 184q0 122 64 198t176 76q95 0 154 -53l52 62zM395 433q-20 22 -49 33.5t-66 11.5q-84 0 -130 -60.5t-46 -158.5q0 -85 31 -135zM456 257
q0 46 -6.5 78.5t-24.5 61.5l-263 -312q47 -45 119 -45q87 0 134 67q41 59 41 150z" />
    <glyph glyph-name="ugrave" unicode="&#xf9;" 
d="M483 0h-60v72q-39 -47 -79 -66.5t-90 -19.5q-93 0 -140 53q-42 48 -42 133v346h60v-341q0 -137 133 -137q76 0 119 59q39 53 39 133v286h60v-518zM346 574h-51l-138 139h78z" />
    <glyph glyph-name="uacute" unicode="&#xfa;" 
d="M483 0h-60v72q-39 -47 -79 -66.5t-90 -19.5q-93 0 -140 53q-42 48 -42 133v346h60v-341q0 -137 133 -137q76 0 119 59q39 53 39 133v286h60v-518zM409 713l-137 -139h-51l111 139h77z" />
    <glyph glyph-name="ucircumflex" unicode="&#xfb;" 
d="M483 0h-60v72q-39 -47 -79 -66.5t-90 -19.5q-93 0 -140 53q-42 48 -42 133v346h60v-341q0 -137 133 -137q76 0 119 59q39 53 39 133v286h60v-518zM430 574h-65l-82 102l-82 -102h-65l114 139h67z" />
    <glyph glyph-name="udieresis" unicode="&#xfc;" 
d="M483 0h-60v72q-39 -47 -79 -66.5t-90 -19.5q-93 0 -140 53q-42 48 -42 133v346h60v-341q0 -137 133 -137q76 0 119 59q39 53 39 133v286h60v-518zM396 584h-65v102h65v-102zM237 584h-65v102h65v-102z" />
    <glyph glyph-name="yacute" unicode="&#xfd;" horiz-adv-x="500" 
d="M482 518l-195 -516q-77 -206 -163 -206q-18 0 -33.5 3t-22.5 4v56q11 -2 23.5 -4t24.5 -2q41 0 65 46q24 64 38 97l-201 522h67l166 -445l166 445h65zM381 713l-137 -139h-51l111 139h77z" />
    <glyph glyph-name="thorn" unicode="&#xfe;" horiz-adv-x="611" 
d="M555 262q0 -125 -61 -200.5t-171 -75.5q-54 0 -105 25t-79 72v-287h-60v924h60v-293q27 49 78 77t105 28q116 0 177 -77q56 -71 56 -193zM491 263q0 41 -6 70t-17 51q-22 45 -61.5 69.5t-91.5 24.5q-83 0 -129.5 -61t-46.5 -159q0 -89 43 -149q49 -69 133 -69
q85 0 132 63q44 59 44 160z" />
    <glyph glyph-name="ydieresis" unicode="&#xff;" horiz-adv-x="500" 
d="M482 518l-195 -516q-77 -206 -163 -206q-18 0 -33.5 3t-22.5 4v56q11 -2 23.5 -4t24.5 -2q41 0 65 46q24 64 38 97l-201 522h67l166 -445l166 445h65zM368 584h-65v102h65v-102zM209 584h-65v102h65v-102z" />
    <glyph glyph-name="dotlessi" unicode="&#x131;" horiz-adv-x="222" 
d="M138 0h-60v518h60v-518z" />
    <glyph glyph-name="Lslash" unicode="&#x141;" 
d="M535 0h-454v360l-81 -40v60l81 40v300h68v-250l81 40v-60l-81 -40v-352h386v-58z" />
    <glyph glyph-name="lslash" unicode="&#x142;" horiz-adv-x="222" 
d="M212 430l-71 -40v-390h-60v340l-71 -40v60l71 40v320h60v-270l71 40v-60z" />
    <glyph glyph-name="OE" unicode="&#x152;" horiz-adv-x="1000" 
d="M967 0h-417v72q-87 -91 -202 -91q-148 0 -230 107q-77 101 -77 269q0 177 79.5 279.5t225.5 102.5q148 0 204 -95v76h407v-58h-342v-260h320v-58h-320v-286h352v-58zM547 224v278q0 82 -51.5 130.5t-146.5 48.5q-117 0 -178.5 -81.5t-61.5 -238.5q0 -148 58 -231
q63 -91 187 -91q39 0 83 18t68.5 42.5t33 53.5t8.5 71z" />
    <glyph glyph-name="oe" unicode="&#x153;" horiz-adv-x="944" 
d="M904 245h-393l-1 -16q0 -69 39 -122q49 -67 138 -67q56 0 96.5 32.5t52.5 87.5h61q-17 -82 -73 -128t-138 -46q-71 0 -124.5 34t-82.5 92q-28 -58 -83.5 -92t-126.5 -34q-105 0 -169 73t-64 201q0 124 60.5 198t174.5 74q77 0 130 -34q48 -31 78 -91q31 60 78 91
q52 34 125 34q120 0 174 -78q48 -70 48 -209zM840 295q0 88 -40.5 135.5t-117.5 47.5q-74 0 -122.5 -51.5t-48.5 -131.5h329zM447 267q0 100 -48.5 155.5t-131.5 55.5q-75 0 -119 -53q-48 -58 -48 -171q0 -102 46 -158t126 -56q79 0 127 59.5t48 167.5z" />
    <glyph glyph-name="Scaron" unicode="&#x160;" horiz-adv-x="611" 
d="M567 191q0 -110 -84 -165q-69 -45 -176 -45q-130 0 -200 68q-64 62 -64 166h66q8 -90 62 -133t145 -43q93 0 141 46q42 40 42 99q0 44 -19.5 71.5t-56.5 46.5q-21 11 -163 47q-64 16 -101 35q-43 22 -67 54q-32 44 -32 110q0 80 62 133q67 58 182 58t181 -63
q61 -58 61 -152h-65q0 79 -55 121q-47 36 -120 36q-82 0 -130.5 -36.5t-48.5 -101.5q0 -39 17 -63.5t55 -43.5q135 -41 270 -81q98 -49 98 -164zM457 915l-113 -139h-67l-114 139h65l82 -102l82 102h65z" />
    <glyph glyph-name="scaron" unicode="&#x161;" horiz-adv-x="500" 
d="M454 137q0 -72 -57 -111.5t-152 -39.5q-85 0 -140 45q-59 48 -59 131h61q14 -65 49.5 -93.5t104.5 -28.5q63 0 98 30q31 26 31 65q0 62 -86 87l-160 40q-86 35 -86 124q0 65 49.5 105.5t132.5 40.5q87 0 138 -38.5t62 -124.5h-61q-15 109 -140 109q-54 0 -85.5 -23.5
t-31.5 -64.5q0 -57 86 -84l160 -46q86 -38 86 -123zM402 713l-113 -139h-67l-114 139h65l82 -102l82 102h65z" />
    <glyph glyph-name="Ydieresis" unicode="&#x178;" horiz-adv-x="611" 
d="M598 720l-261 -406v-314h-68v309l-257 411h78l212 -347l217 347h79zM423 786h-65v102h65v-102zM264 786h-65v102h65v-102z" />
    <glyph glyph-name="Zcaron" unicode="&#x17d;" horiz-adv-x="611" 
d="M579 0h-548v57l461 605h-422v58h506v-57l-461 -605h464v-58zM457 915l-113 -139h-67l-114 139h65l82 -102l82 102h65z" />
    <glyph glyph-name="zcaron" unicode="&#x17e;" horiz-adv-x="500" 
d="M467 0h-434v53l344 415h-321v50h398v-53l-344 -415h357v-50zM402 713l-113 -139h-67l-114 139h65l82 -102l82 102h65z" />
    <glyph glyph-name="florin" unicode="&#x192;" 
d="M539 714l-20 -49q-16 8 -28 11t-24 3q-57 0 -83 -51q-13 -27 -24.5 -79t-21.5 -101h115v-48h-123l-64 -336q-25 -131 -66 -190q-48 -70 -132 -70q-17 0 -30 3q-17 6 -25 8l19 57q23 -13 48 -13q26 0 43 12.5t35.5 50t35 104t45.5 229.5l26 145h-113v48h121q18 81 20 88
q16 65 38.5 110.5t58.5 66.5t80 21q34 0 69 -20z" />
    <glyph glyph-name="hungarumlaut" unicode="&#x2ba;" horiz-adv-x="333" 
d="M459 713l-137 -139h-51l111 139h77zM297 713l-137 -139h-51l111 139h77z" />
    <glyph glyph-name="circumflex" unicode="&#x2c6;" horiz-adv-x="333" 
d="M318 574h-65l-82 102l-82 -102h-65l114 139h67z" />
    <glyph glyph-name="caron" unicode="&#x2c7;" horiz-adv-x="333" 
d="M318 713l-113 -139h-67l-114 139h65l82 -102l82 102h65z" />
    <glyph glyph-name="breve" unicode="&#x2d8;" horiz-adv-x="333" 
d="M316 706q-6 -62 -46.5 -94t-101.5 -32q-63 0 -101.5 34.5t-38.5 91.5h39q8 -41 36.5 -61t68.5 -20q87 0 107 81h37z" />
    <glyph glyph-name="dotaccent" unicode="&#x2d9;" horiz-adv-x="333" 
d="M199 584h-65v102h65v-102z" />
    <glyph glyph-name="ring" unicode="&#x2da;" horiz-adv-x="333" 
d="M266 677q0 -41 -29 -70t-70 -29q-40 0 -70 29t-30 69q0 41 29 71t71 30q41 0 70 -29t29 -71zM233 677q0 27 -19 47t-47 20q-27 0 -47 -20t-20 -47q0 -26 20 -46t47 -20q26 0 46 20t20 46z" />
    <glyph glyph-name="ogonek" unicode="&#x2db;" horiz-adv-x="333" 
d="M228 -181q-27 -9 -50 -9q-47 0 -75.5 24.5t-28.5 61.5q0 31 20.5 59t54.5 45h50q-43 -24 -61.5 -46.5t-18.5 -43.5q0 -25 18.5 -40.5t49.5 -15.5q17 0 41 9v-44z" />
    <glyph glyph-name="tilde" unicode="&#x2dc;" horiz-adv-x="333" 
d="M329 688q-4 -42 -26 -70t-56 -28q-29 0 -77 22.5t-68 22.5q-18 0 -30 -11t-20 -38h-36q0 40 26.5 68.5t64.5 28.5q23 0 72 -22.5t68 -22.5q16 0 27 11t17 39h38z" />
    <glyph glyph-name="endash" unicode="&#x2013;" horiz-adv-x="500" 
d="M500 238h-500v44h500v-44z" />
    <glyph glyph-name="emdash" unicode="&#x2014;" horiz-adv-x="1000" 
d="M1000 238h-1000v44h1000v-44z" />
    <glyph glyph-name="quoteleft" unicode="&#x2018;" horiz-adv-x="222" 
d="M142 495h-73v118q0 37 17.5 66t55.5 41v-37q-34 -21 -34 -64v-36h34v-88z" />
    <glyph glyph-name="quoteright" unicode="&#x2019;" horiz-adv-x="222" 
d="M153 602q0 -37 -16 -64q-19 -31 -57 -43v37q34 21 34 64v36h-34v88h73v-118z" />
    <glyph glyph-name="quotesinglbase" unicode="&#x201a;" horiz-adv-x="222" 
d="M153 -30q0 -37 -16 -64q-19 -31 -57 -43v37q34 21 34 64v36h-34v88h73v-118z" />
    <glyph glyph-name="quotedblleft" unicode="&#x201c;" horiz-adv-x="389" 
d="M310 495h-73v118q0 37 17.5 66t55.5 41v-37q-34 -21 -34 -64v-36h34v-88zM159 495h-73v118q0 37 17.5 66t55.5 41v-37q-34 -21 -34 -64v-36h34v-88z" />
    <glyph glyph-name="quotedblright" unicode="&#x201d;" horiz-adv-x="389" 
d="M303 602q0 -37 -16 -64q-19 -31 -57 -43v37q34 21 34 64v36h-34v88h73v-118zM152 602q0 -37 -16 -64q-19 -31 -57 -43v37q34 21 34 64v36h-34v88h73v-118z" />
    <glyph glyph-name="quotedblbase" unicode="&#x201e;" horiz-adv-x="389" 
d="M303 -30q0 -37 -16 -64q-19 -31 -57 -43v37q34 21 34 64v36h-34v88h73v-118zM152 -30q0 -37 -16 -64q-19 -31 -57 -43v37q34 21 34 64v36h-34v88h73v-118z" />
    <glyph glyph-name="dagger" unicode="&#x2020;" 
d="M519 436h-211v-602h-60v602h-211v54h211v230h60v-230h211v-54z" />
    <glyph glyph-name="daggerdbl" unicode="&#x2021;" 
d="M519 55h-211v-221h-60v221h-211v54h211v334h-211v54h211v223h60v-223h211v-54h-211v-334h211v-54z" />
    <glyph glyph-name="bullet" unicode="&#x2022;" horiz-adv-x="500" 
d="M430 360q0 -74 -53 -127t-127 -53t-127 53t-53 127t53 127t127 53t127 -53t53 -127z" />
    <glyph glyph-name="ellipsis" unicode="&#x2026;" horiz-adv-x="1000" 
d="M870 0h-73v88h73v-88zM537 0h-73v88h73v-88zM204 0h-73v88h73v-88z" />
    <glyph glyph-name="perthousand" unicode="&#x2030;" horiz-adv-x="1000" 
d="M985 149q0 -62 -43.5 -105.5t-106.5 -43.5q-60 0 -104.5 43.5t-44.5 105.5t44 106t106 44q61 0 105 -44t44 -106zM313 548q0 -63 -44 -106t-106 -43q-60 0 -104.5 43.5t-44.5 105.5t44 106t105 44q60 0 105 -44t45 -106zM546 705l-407 -719h-53l407 719h53zM623 149
q0 -63 -44 -106t-106 -43q-60 0 -104.5 43.5t-44.5 105.5t44 106t105 44q60 0 105 -44t45 -106zM928 149q0 38 -27.5 65.5t-65.5 27.5q-37 0 -64.5 -27.5t-27.5 -65.5q0 -37 27.5 -64.5t64.5 -27.5t65 28t28 64zM256 548q0 39 -27 66t-66 27q-38 0 -65 -27t-27 -66
q0 -37 27.5 -64.5t64.5 -27.5t65 28t28 64zM566 149q0 38 -27.5 65.5t-65.5 27.5t-65 -27t-27 -66q0 -37 27.5 -64.5t64.5 -27.5t65 28t28 64z" />
    <glyph glyph-name="guilsinglleft" unicode="&#x2039;" horiz-adv-x="389" 
d="M267 117l-146 111v63l146 113v-63l-104 -82l104 -80v-62z" />
    <glyph glyph-name="guilsinglright" unicode="&#x203a;" horiz-adv-x="389" 
d="M268 230l-146 -113v63l104 82l-104 80v62l146 -111v-63z" />
    <glyph glyph-name="trademark" unicode="&#x2122;" horiz-adv-x="940" 
d="M859 299h-52v377l-147 -377h-34l-145 377l-2 -377h-52v421h96l120 -311l120 311h96v-421zM349 680h-134v-381h-52v381h-134v40h320v-40z" />
    <glyph glyph-name="fraction" unicode="&#x2215;" horiz-adv-x="167" 
d="M331 705l-444 -719h-51l444 719h51z" />
    <glyph glyph-name="fi" unicode="&#xf001;" horiz-adv-x="500" 
d="M435 631h-66v89h66v-89zM432 0h-60v518h60v-518zM252 675l-17.5 3.5t-18.5 1.5q-33 0 -48.5 -20t-15.5 -66v-76h98v-50h-98v-468h-60v468h-79v50h79v82q0 70 28 102t80 32h23.5t28.5 -4v-55z" />
    <glyph glyph-name="fl" unicode="&#xf002;" horiz-adv-x="500" 
d="M432 0h-60v720h60v-720zM252 675l-17.5 3.5t-18.5 1.5q-33 0 -48.5 -20t-15.5 -66v-76h98v-50h-98v-468h-60v468h-79v50h79v82q0 70 28 102t80 32h23.5t28.5 -4v-55z" />
    </font>
</defs>
</svg>
